<svg width="367" height="74" viewBox="0 0 367 74" fill="none" xmlns="http://www.w3.org/2000/svg">
<path d="M140.257 59.8586V65.8832H142.394V53.8341H140.257V59.8586Z" fill="white"/>
<path d="M129.179 59.8586V65.8832H138.313L138.216 64.2313L131.414 64.037L131.315 53.8341H129.179V59.8586Z" fill="white"/>
<path d="M123.058 53.9643C122.968 54.0343 122.912 56.4188 122.929 59.2601C122.949 62.1013 123.028 64.756 123.108 65.1583L123.252 65.891L125.292 65.8832V53.8341C123.685 53.8341 123.147 53.8924 123.058 53.9643Z" fill="white"/>
<path d="M77.6791 59.8586V65.8832H79.8169C79.8169 59.8586 79.883 58.1115 79.9626 58.1135C80.0423 58.1154 80.4349 58.6615 80.8352 59.3281C81.2356 59.9947 82.1548 61.4134 82.8758 62.4822C83.9524 64.0758 84.277 64.4256 84.6754 64.4256C85.0777 64.4256 85.4333 64.0272 86.7509 62.0936C87.6255 60.8109 88.3465 59.6954 88.3542 59.6157C88.362 59.536 88.6088 59.1493 88.9023 58.7548L89.4367 58.0416L89.631 65.786L91.866 65.8832L91.7688 53.9313C90.2413 53.8244 89.9401 53.8982 89.7049 54.1625C89.5319 54.3549 88.4475 56.0438 87.2951 57.9152C86.1426 59.7848 85.1029 61.4328 84.9863 61.5747C84.8153 61.7826 84.6618 61.6835 84.2245 61.0888C83.9213 60.6788 82.7203 58.8792 81.5523 57.0893L79.4282 53.8341H77.6791V59.8586Z" fill="white"/>
<path d="M167.659 53.8885C167.177 54.0245 166.456 54.3296 166.055 54.5667C165.635 54.8174 165.161 55.3285 164.938 55.7774C164.724 56.205 164.549 56.8172 164.549 57.1378C164.549 57.4585 164.681 58.0493 164.845 58.4496C165.014 58.8655 165.429 59.365 165.816 59.6157C166.187 59.8566 167.301 60.2687 168.29 60.531C169.279 60.7934 170.395 61.0965 170.768 61.2034C171.141 61.3122 171.644 61.5785 171.885 61.7962C172.126 62.0119 172.323 62.4103 172.323 62.6765C172.323 62.9447 172.103 63.382 171.837 63.6482C171.569 63.9164 171.023 64.1904 170.622 64.2584C170.222 64.3265 169.326 64.3401 168.63 64.2895C167.851 64.2351 166.92 64 166.201 63.6793C165.56 63.3936 165.035 63.1818 165.035 63.209C165.035 63.2382 164.926 63.4558 164.792 63.6968C164.658 63.9378 164.549 64.309 164.549 64.5227C164.549 64.7909 164.804 65.028 165.375 65.2884C165.83 65.4964 166.858 65.7704 167.659 65.8948C168.496 66.025 169.653 66.0658 170.379 65.9881C171.075 65.9162 171.95 65.7257 172.323 65.5683C172.696 65.4089 173.291 65.0008 173.642 64.6588C173.996 64.3129 174.369 63.691 174.48 63.2595C174.591 62.832 174.62 62.2198 174.546 61.8992C174.472 61.5785 174.258 61.0985 174.072 60.8303C173.883 60.564 173.522 60.2414 173.269 60.1151C173.017 59.9888 172.502 59.7595 172.128 59.6059C171.755 59.4524 170.749 59.1726 169.893 58.9821C169.038 58.7936 168.049 58.4982 167.695 58.3252C167.305 58.1348 167.008 57.8219 166.94 57.5265C166.877 57.2603 166.906 56.823 167.002 56.5548C167.099 56.2886 167.482 55.9154 167.855 55.7289C168.271 55.5209 168.984 55.3888 169.699 55.3849C170.34 55.3849 171.172 55.4782 171.545 55.5967C171.919 55.7133 172.424 55.9115 172.667 56.0359C173.022 56.2186 173.166 56.205 173.397 55.9718C173.555 55.8105 173.706 55.4237 173.734 55.1089C173.776 54.5881 173.693 54.5045 172.809 54.1644C172.226 53.9409 171.176 53.7621 170.185 53.7155C169.202 53.6708 168.179 53.7408 167.659 53.8885Z" fill="white"/>
<path d="M124.222 51.3368C123.646 51.8848 123.172 52.4096 123.166 52.5028C123.159 52.5942 123.483 52.668 123.883 52.67C124.455 52.6719 124.894 52.462 125.924 51.6983C126.645 51.1619 127.191 50.6372 127.139 50.5303C127.086 50.4234 126.643 50.3359 126.155 50.3359C125.353 50.3359 125.168 50.4312 124.222 51.3368Z" fill="white"/>
<path d="M348.105 25.7831C348.016 25.855 347.956 30.9273 347.973 37.0568L348.006 48.1983H353.253C353.249 42.852 353.316 41.0136 353.397 40.6657L353.545 40.0321L364.428 39.9389C364.523 36.0035 364.515 35.9549 364.088 35.9296C363.847 35.916 361.334 35.8499 358.501 35.7839L353.351 35.6634V29.8332C362.84 29.8079 365.703 29.7865 365.837 29.769C366.018 29.7438 366.068 29.221 366.031 27.744L365.983 25.752C352.254 25.6743 348.195 25.7093 348.105 25.7831Z" fill="white"/>
<path d="M324.779 25.8958C324.724 26.0299 324.705 31.0827 324.732 37.1209L324.783 48.1011L343.148 48.1983V44.1171L330.224 44.02V38.7728L341.204 38.6756C341.377 37.0937 341.401 36.2425 341.366 35.7605L341.301 34.886L330.127 34.7888L330.224 29.8331L342.759 29.736L342.662 25.752C326.757 25.6607 324.854 25.7034 324.779 25.8958Z" fill="white"/>
<path d="M277.366 25.7831C277.276 25.855 277.216 29.7263 277.233 34.3846C277.251 39.043 277.331 44.0569 277.412 45.5261L277.558 48.2003L282.708 48.1983V40.036L293.882 39.9389C293.962 36.8353 293.9 36.1609 293.735 35.9763C293.537 35.7528 292.543 35.7178 288.149 35.7819L282.805 35.8577V29.8332L295.34 29.736L295.243 25.752C281.515 25.6743 277.455 25.7093 277.366 25.7831Z" fill="white"/>
<path d="M195.546 25.7851C195.457 25.8551 195.401 28.5894 195.418 31.8582C195.437 35.127 195.54 38.5882 195.649 39.5502C195.758 40.5122 195.989 41.7365 196.164 42.271C196.339 42.8054 196.701 43.5925 196.969 44.02C197.237 44.4476 197.871 45.2347 198.376 45.7691C198.965 46.3929 199.771 46.9643 200.626 47.3646C201.359 47.7086 202.593 48.1245 203.369 48.2878C204.144 48.4529 205.477 48.587 206.332 48.587C207.187 48.587 208.565 48.4471 209.393 48.2761C210.221 48.1051 211.424 47.7319 212.065 47.4443C212.707 47.1586 213.711 46.4784 214.3 45.9343C214.996 45.2891 215.626 44.4437 216.106 43.5109C216.632 42.4848 216.924 41.5791 217.126 40.3276C217.342 38.9944 217.398 37.0549 217.361 32.1653L217.312 25.7521L211.968 25.6549C211.956 36.674 211.879 38.802 211.675 39.9389C211.484 41.0019 211.226 41.7365 210.856 42.2593C210.53 42.7238 209.894 43.2446 209.247 43.5769C208.307 44.0628 207.97 44.1289 206.429 44.1289C204.89 44.1289 204.552 44.0628 203.611 43.5789C202.943 43.233 202.346 42.7393 202.022 42.2613C201.73 41.8318 201.365 40.8717 201.196 40.0847C200.953 38.9633 200.891 37.3425 200.891 32.1653V25.6549C196.874 25.6549 195.636 25.7132 195.546 25.7851Z" fill="white"/>
<path d="M132.683 36.9207L132.677 48.1983H137.925L137.827 25.752L132.689 25.6432L132.683 36.9207Z" fill="white"/>
<path d="M104.984 25.7851C104.895 25.855 104.836 30.9273 104.854 37.0568L104.887 48.1983L110.231 48.1011C110.307 37.6048 110.402 34.8102 110.503 34.8374C110.6 34.8646 111.763 36.1103 113.088 37.6068C114.413 39.1032 115.712 40.586 115.974 40.9028C116.236 41.2176 116.848 41.9172 117.334 42.4575C117.822 42.9958 119.155 44.5078 120.298 45.8176L122.377 48.1983H126.847L126.75 25.752H121.503L121.309 39.2742C119.025 36.7769 117.97 35.5701 117.49 34.9832C117.01 34.3963 116.363 33.6481 116.048 33.3235C115.735 32.997 114.429 31.5123 113.146 30.0236C111.864 28.535 110.464 26.9453 110.037 26.4925L109.259 25.6704C106.072 25.6587 105.073 25.7132 104.984 25.7851Z" fill="white"/>
<path d="M77.2963 32.7424C77.2924 37.3347 77.3682 40.1682 77.5081 40.7648C77.6286 41.272 77.9551 42.2554 78.231 42.9511C78.6217 43.9248 79.0492 44.5272 80.1025 45.5786C80.8546 46.3287 81.8633 47.1352 82.3433 47.3685C82.8252 47.6036 83.9174 47.9748 84.7725 48.1925C85.7403 48.4412 86.9511 48.5909 87.9791 48.5928C88.8887 48.5928 90.3307 48.449 91.1858 48.276C92.0408 48.1011 93.135 47.7766 93.615 47.555C94.097 47.3315 94.9268 46.834 95.4612 46.4453C95.9957 46.0586 96.7439 45.3104 97.1228 44.7837C97.5037 44.2571 97.9352 43.5633 98.0829 43.2426C98.2306 42.922 98.4774 42.2651 98.6309 41.7851C98.8466 41.1049 98.9263 39.2314 98.9827 33.3799L99.0565 25.8492C98.3783 25.6859 97.1773 25.6646 95.9471 25.6957L93.7122 25.752C93.5256 40.0827 93.4867 40.7745 93.1525 41.3964C92.9504 41.7695 92.6219 42.3176 92.4237 42.611C92.2235 42.9045 91.5803 43.3631 90.9914 43.6313C90.1052 44.0336 89.6252 44.1172 88.1735 44.1172C86.712 44.1172 86.2728 44.0394 85.5013 43.6507C84.9941 43.3942 84.3858 42.9783 84.1526 42.7276C83.9174 42.4769 83.5249 41.8337 83.2781 41.2992C82.8408 40.3528 82.8272 40.1371 82.732 33.0398L82.6348 25.752L77.3021 25.6432L77.2963 32.7424Z" fill="white"/>
<path d="M152.597 25.5576C151.849 25.6976 150.887 25.9405 150.459 26.096C150.032 26.2514 149.2 26.6226 148.613 26.92C148.026 27.2173 147.152 27.7576 146.67 28.121C146.188 28.4825 145.412 29.2365 144.946 29.7923C144.48 30.3501 143.854 31.2868 143.556 31.8737C143.259 32.4606 142.878 33.4673 142.709 34.1086C142.54 34.7499 142.398 36.0617 142.394 37.0237C142.388 38.3957 142.495 39.107 142.894 40.3275C143.174 41.1826 143.786 42.473 144.258 43.194C144.742 43.9344 145.644 44.9411 146.33 45.5028C146.998 46.0527 147.982 46.7193 148.516 46.9875C149.05 47.2538 150.187 47.6949 151.042 47.965C152.387 48.3906 152.966 48.4587 155.318 48.4684C157.57 48.4781 158.355 48.4004 159.885 48.0156C160.901 47.759 162.343 47.2499 163.091 46.8845C163.84 46.5172 164.607 46.0741 164.798 45.8973C165.113 45.6057 165.144 45.1452 165.138 41.0562L165.132 36.5378L160.176 36.635L159.982 43.435C158.151 43.9461 156.9 44.0918 155.901 44.0996C154.828 44.1074 153.701 43.9888 152.986 43.7906C152.344 43.6138 151.47 43.229 151.042 42.9375C150.615 42.644 149.993 42.1135 149.661 41.7559C149.328 41.3983 148.804 40.5801 148.495 39.9388C147.997 38.9049 147.933 38.5629 147.933 36.9265C147.933 35.3291 148.003 34.9365 148.448 34.0114C148.73 33.4245 149.262 32.5927 149.628 32.1652C149.995 31.7376 150.681 31.1527 151.153 30.867C151.627 30.5813 152.582 30.1985 153.277 30.0177C154.197 29.7787 155.044 29.7126 156.387 29.7748C157.858 29.8448 158.47 29.9692 159.399 30.3909C160.04 30.6824 160.894 31.1779 161.294 31.4947C161.922 31.9883 162.069 32.033 162.363 31.8134C162.549 31.6735 163.297 31.04 164.022 30.4045C164.749 29.769 165.342 29.1626 165.34 29.0558C165.338 28.9489 164.833 28.4786 164.215 28.0121C163.597 27.5438 162.524 26.8966 161.828 26.574C161.133 26.2514 159.778 25.8278 158.816 25.6295C157.854 25.4333 156.367 25.2778 155.512 25.2856C154.657 25.2953 153.345 25.4158 152.597 25.5576Z" fill="white"/>
<path d="M293.299 10.6265C293.21 10.6965 293.152 13.4076 293.169 16.6511L293.202 22.5454H294.368V10.4963C293.665 10.4963 293.389 10.5546 293.299 10.6265Z" fill="white"/>
<path d="M253.99 10.7956C253.912 10.9589 253.936 11.1746 254.043 11.2737C254.15 11.3709 255.199 11.4778 256.375 11.5088L258.512 11.5652L258.707 22.6426H259.873L260.067 11.5652L264.44 11.468V10.4963C254.839 10.4963 254.111 10.5372 253.99 10.7956Z" fill="white"/>
<path d="M250.506 16.5578L250.545 22.6426H251.711V10.5935L250.469 10.4711L250.506 16.5578Z" fill="white"/>
<path d="M240.39 10.7547C240.044 10.8791 239.454 11.2231 239.079 11.5165C238.672 11.8352 238.311 12.3444 238.181 12.7797C238.062 13.1801 238.017 13.8797 238.084 14.3344C238.179 14.9816 238.361 15.2848 238.933 15.7415C239.333 16.0602 240.056 16.445 240.536 16.5966C241.016 16.7482 241.718 16.9289 242.091 16.9988C242.464 17.0708 242.991 17.2029 243.257 17.2942C243.525 17.3856 243.962 17.5041 244.229 17.5585C244.497 17.613 244.998 17.9259 245.346 18.2543C245.824 18.7071 245.978 19.018 245.978 19.533C245.978 20.0364 245.812 20.3843 245.346 20.8701C244.817 21.4201 244.522 21.5503 243.548 21.6708C242.907 21.7485 241.902 21.7505 241.313 21.6727C240.725 21.595 239.807 21.3171 239.273 21.0528C238.738 20.7885 238.192 20.6233 238.058 20.6855C237.924 20.7457 237.815 20.9498 237.815 21.1363C237.815 21.354 238.15 21.63 238.738 21.9001C239.246 22.1333 240.099 22.4306 240.633 22.5609C241.205 22.7008 242.206 22.7571 243.063 22.6969C243.96 22.6347 244.817 22.4443 245.297 22.2013C245.725 21.9856 246.217 21.6475 246.392 21.4492C246.567 21.251 246.86 20.7826 247.047 20.4076C247.243 20.0111 247.346 19.4845 247.291 19.1444C247.239 18.8237 247.033 18.3087 246.831 17.9997C246.629 17.6926 246.069 17.2457 245.589 17.0086C245.109 16.7715 243.927 16.3789 242.965 16.1379C242.003 15.8969 240.876 15.5568 240.46 15.3819C240.025 15.1973 239.592 14.8358 239.44 14.5288C239.294 14.2353 239.172 13.7981 239.17 13.5571C239.166 13.3161 239.341 12.8788 239.559 12.5854C239.774 12.2919 240.215 11.9207 240.536 11.7594C240.901 11.5768 241.681 11.466 242.625 11.464C243.642 11.4621 244.495 11.5884 245.249 11.8527C246.3 12.222 246.372 12.2259 246.464 11.9052C246.518 11.7186 246.452 11.4504 246.318 11.3086C246.184 11.1667 245.638 10.9257 245.103 10.7722C244.569 10.6187 243.432 10.5001 242.577 10.5098C241.722 10.5176 240.738 10.6284 240.39 10.7547Z" fill="white"/>
<path d="M212.988 16.5655L213.037 22.6426H221.977V21.6709L214.3 21.5737V16.9095C219.611 16.9095 220.947 16.8337 221.005 16.7152C221.059 16.6083 220.993 16.3848 220.859 16.2216C220.657 15.9709 220.078 15.9223 217.458 15.93L214.3 15.9378V11.468C221.636 11.3728 221.782 11.3553 221.782 10.9822C221.782 10.6071 221.635 10.5915 217.361 10.541L212.942 10.4885L212.988 16.5655Z" fill="white"/>
<path d="M198.504 10.6304C198.45 10.7179 198.885 11.7945 199.472 13.0227C200.059 14.251 200.805 15.8271 201.132 16.5209C201.46 17.2147 202.15 18.7033 202.667 19.8247C203.184 20.946 203.761 22.0751 203.95 22.3316C204.21 22.6892 204.406 22.7708 204.778 22.6815C205.061 22.6115 205.4 22.2967 205.592 21.9216C205.771 21.5698 206.369 20.3202 206.921 19.1445C207.473 17.9687 208.365 16.0875 208.903 14.9661C209.442 13.8448 210.089 12.4669 210.342 11.9053C210.596 11.3437 210.802 10.7976 210.802 10.6907C210.802 10.5838 210.571 10.5177 210.287 10.5449C210.003 10.5721 209.698 10.7257 209.607 10.885C209.518 11.0444 208.884 12.3562 208.204 13.8001C207.522 15.2441 206.472 17.4518 205.87 18.7072C205.269 19.9626 204.69 20.946 204.583 20.8935C204.476 20.841 203.952 19.8771 203.417 18.7558C202.883 17.6344 202.446 16.6705 202.446 16.618C202.446 16.5656 201.962 15.4928 201.371 14.2374C200.78 12.9819 200.143 11.6488 199.954 11.2737C199.715 10.7995 199.459 10.576 199.107 10.5333C198.829 10.5002 198.559 10.5449 198.504 10.6304Z" fill="white"/>
<path d="M194.672 16.5209V22.5454H195.838V10.4963H194.672V16.5209Z" fill="white"/>
<path d="M179.708 16.5209V22.5454H180.874C180.874 14.9661 180.948 13.1802 181.068 13.1199C181.175 13.0674 181.807 13.6563 182.469 14.4317C183.134 15.2071 183.834 15.9942 184.024 16.1808C184.216 16.3673 184.374 16.5869 184.376 16.6666C184.376 16.7463 184.792 17.2671 185.299 17.821C185.804 18.3768 186.918 19.6692 187.773 20.6914C189.052 22.2228 189.423 22.5532 189.862 22.5493L190.396 22.5454V10.4963H189.23C189.23 18.027 189.164 20.2172 189.085 20.223C189.005 20.2269 188.632 19.8907 188.259 19.4748C187.886 19.059 187.359 18.4546 187.093 18.132C186.824 17.8074 185.25 15.9553 183.595 14.0158C181.327 11.3592 180.473 10.4886 180.145 10.4924L179.708 10.4963V16.5209Z" fill="white"/>
<path d="M164.654 10.6168C164.561 10.6926 164.499 12.2065 164.518 13.9789C164.536 15.7513 164.627 17.683 164.72 18.2699C164.814 18.8568 165.051 19.6886 165.251 20.1162C165.449 20.5437 165.832 21.0918 166.1 21.3366C166.37 21.5795 166.94 21.9721 167.367 22.2092C168.018 22.5707 168.446 22.6406 169.991 22.6426C171.452 22.6426 171.996 22.561 172.605 22.2539C173.028 22.0401 173.629 21.6029 173.942 21.2822C174.255 20.9615 174.653 20.4368 174.826 20.1162C175.088 19.6284 175.143 18.7908 175.156 15.0147L175.17 10.4963H174.072C174.072 18.1339 174.018 18.9618 173.757 19.4846C173.584 19.8324 173.258 20.3222 173.028 20.5729C172.801 20.8216 172.373 21.1501 172.08 21.3016C171.753 21.4688 170.943 21.5737 169.991 21.5737C169.039 21.5737 168.228 21.4688 167.902 21.3016C167.608 21.1501 167.177 20.8216 166.944 20.5729C166.71 20.3222 166.409 19.8538 166.275 19.5331C166.118 19.16 165.991 17.4518 165.921 14.7718L165.813 10.5935C165.047 10.5041 164.748 10.541 164.654 10.6168Z" fill="white"/>
<path d="M118.001 10.7878C117.948 10.9472 117.952 11.1668 118.005 11.2737C118.061 11.3864 119.009 11.468 120.24 11.468C121.967 11.468 122.397 11.5244 122.474 11.7595C122.527 11.9189 122.572 14.4123 122.572 17.2982V22.5454H123.738L123.835 11.5652L128.208 11.468V10.4963C118.825 10.4963 118.079 10.5391 118.001 10.7878Z" fill="white"/>
<path d="M104.79 10.6266C104.7 10.6965 104.642 13.4076 104.659 16.6511C104.685 21.1462 104.751 22.5746 104.935 22.6659C105.069 22.732 105.375 22.732 105.616 22.6659L106.053 22.5454C106.053 14.7388 106.123 13.0228 106.247 13.0228C106.354 13.0228 106.566 13.2191 106.717 13.46C106.871 13.701 107.357 14.2899 107.798 14.7718C108.239 15.2538 108.88 15.9903 109.223 16.4101C109.563 16.828 110.151 17.5276 110.528 17.9648C110.906 18.4002 111.644 19.2805 112.173 19.9218C112.699 20.5632 113.484 21.463 113.916 21.9197C114.421 22.4541 114.841 22.732 115.09 22.697C115.469 22.6445 115.478 22.4949 115.478 16.6181V10.5935H114.312C114.236 18.0484 114.141 20.192 114.05 20.1648C113.959 20.1376 112.318 18.2738 110.406 16.0214C108.492 13.771 106.665 11.6041 106.344 11.2076C106.004 10.7859 105.592 10.4886 105.357 10.4925C105.134 10.4944 104.879 10.5547 104.79 10.6266Z" fill="white"/>
<path d="M92.2547 16.5209V22.5454C94.1378 22.7126 96.1706 22.7359 97.9877 22.7028L101.291 22.6426V21.6709L93.4207 21.5737L93.5179 17.0067C100.219 16.9096 100.223 16.9096 100.174 16.4723C100.125 16.0389 100.089 16.035 96.7731 15.9864L93.4207 15.9379L93.5179 11.5652L101 11.468V10.4963H92.2547V16.5209Z" fill="white"/>
<path d="M82.0518 10.7587C81.6243 10.8967 80.9246 11.2309 80.4971 11.4991C80.0695 11.7673 79.4146 12.3406 79.0395 12.772C78.6645 13.2054 78.2058 13.9847 78.0193 14.5056C77.8307 15.0264 77.6772 15.9767 77.6772 16.618C77.6772 17.2594 77.8307 18.2155 78.0193 18.7441C78.2136 19.2922 78.7344 20.0987 79.2339 20.6253C79.7353 21.15 80.6079 21.7778 81.2745 22.0887C82.1723 22.5065 82.7981 22.6484 83.9952 22.7009C85.0777 22.7495 85.8453 22.6717 86.5216 22.4502C87.0561 22.2733 87.8218 21.9157 88.2221 21.6573C88.6224 21.3969 88.9509 21.0976 88.9509 20.9907C88.9509 20.8838 88.776 20.7089 88.5622 20.602C88.2785 20.4601 88.0822 20.4835 87.8334 20.6875C87.6469 20.841 87.1649 21.1034 86.7646 21.2705C86.3098 21.459 85.4333 21.5756 84.4325 21.5776C83.247 21.5815 82.5882 21.4804 81.9061 21.1889C81.3988 20.9732 80.6992 20.5107 80.3513 20.1628C80.0035 19.813 79.5234 19.1134 79.2825 18.6081C78.9851 17.9823 78.8452 17.3293 78.8471 16.5694C78.8491 15.8115 78.9948 15.1391 79.3019 14.4803C79.5507 13.9459 80.0734 13.2249 80.466 12.877C80.8566 12.5291 81.5932 12.0685 82.1004 11.8528C82.7534 11.573 83.4511 11.4583 84.4811 11.4583C85.7501 11.4583 86.096 11.5399 87.1552 12.0957C88.1405 12.6088 88.4184 12.6846 88.6127 12.4825C88.7935 12.2979 88.7993 12.1502 88.638 11.8995C88.5195 11.7148 87.9967 11.3456 87.4778 11.0793C86.6927 10.6751 86.2223 10.5857 84.6812 10.5488C83.5657 10.5216 82.5202 10.6052 82.0518 10.7587Z" fill="white"/>
<path d="M271.106 8.21871C270.55 8.66958 270.091 9.1049 270.085 9.18458C270.08 9.26426 270.272 9.32645 270.513 9.32256C270.754 9.31867 271.345 9.02328 271.825 8.66569C272.305 8.30811 272.796 7.87473 272.915 7.70177C273.098 7.43746 273.051 7.38694 272.624 7.39277C272.322 7.39471 271.708 7.72897 271.106 8.21871Z" fill="white"/>
<path d="M42.9895 7.49384C42.1344 8.08074 40.9684 9.01746 40.3989 9.57716C39.8295 10.1369 38.9939 11.0755 38.5449 11.6624C38.096 12.2493 37.3167 13.4096 36.8114 14.2374C36.3081 15.0653 35.8961 15.831 35.8961 15.9379C35.8961 16.0448 35.7717 16.416 35.6201 16.7639C35.4685 17.1117 35.2062 17.7239 35.0371 18.1242C34.868 18.5246 34.73 18.9405 34.73 19.0474C34.73 19.1542 34.6523 19.3952 34.5571 19.5818C34.4618 19.7684 34.2481 20.5768 34.0809 21.3794C33.9119 22.1801 33.6689 23.4045 33.5387 24.1002C33.4085 24.794 33.2958 26.2826 33.288 27.404L33.2725 29.4445C38.5449 29.6331 40.6438 29.7827 41.3376 29.8974C42.0314 30.012 42.9778 30.3074 43.4404 30.5523C43.9009 30.7991 44.4198 31.2169 44.5928 31.4851C44.7638 31.7514 45.0165 32.4957 45.1525 33.137C45.3157 33.9105 45.3391 34.4993 45.2225 34.8861C45.1233 35.2067 44.997 35.6867 44.9387 35.9549C44.8824 36.2212 44.5306 36.8567 44.1555 37.3639C43.7824 37.8711 43.1916 38.4328 42.8437 38.6116C42.4959 38.7904 41.7321 39.0585 41.1433 39.2082C40.5 39.3714 38.3623 39.5327 35.7678 39.6124L31.4612 39.7446C31.2883 44.4126 31.0667 46.8185 30.8588 48.1012C30.6508 49.3838 30.3924 50.7831 30.2855 51.2106C30.1767 51.6382 29.9901 52.4253 29.8715 52.9597C29.753 53.4941 29.582 54.1063 29.4945 54.3201C29.4071 54.5338 29.1816 55.1013 28.9931 55.5833C28.8046 56.0652 28.2682 57.2449 27.7999 58.2069C27.3315 59.1689 26.8398 60.1308 26.7096 60.3427C26.5775 60.5564 25.9498 61.4757 25.3123 62.3832C24.6768 63.2927 23.4078 64.7814 22.4944 65.689C21.581 66.5985 20.0904 67.8753 19.1828 68.5244C18.2753 69.1754 17.4007 69.7682 17.2394 69.844C17.0781 69.9178 16.4349 70.2598 15.8071 70.6038C15.1794 70.9478 14.6625 71.3151 14.6605 71.422C14.6567 71.5289 15.2144 71.7699 15.8985 71.9584C16.5826 72.1469 17.5795 72.3898 18.114 72.4948C18.6484 72.6016 19.7425 72.7785 20.5432 72.8893C21.3458 73 22.3078 73.173 22.681 73.276C23.0541 73.377 24.5855 73.4606 26.0819 73.4626C27.6872 73.4626 29.479 73.3401 30.4546 73.1652C31.3641 73 32.8061 72.7318 33.6612 72.5686C34.5163 72.4054 35.4782 72.1896 35.7989 72.0905C36.1196 71.9914 36.7764 71.7835 37.2565 71.628C37.7365 71.4725 38.7432 71.1169 39.4914 70.839C40.2396 70.5611 41.6388 69.9333 42.6008 69.4417C43.5628 68.95 44.9193 68.194 45.6131 67.7606C46.3069 67.3272 47.5759 66.4449 48.431 65.7997C49.2861 65.1545 50.6756 63.9691 51.521 63.1664C52.3644 62.3619 53.7559 60.8752 54.613 59.8588C55.4681 58.8424 56.568 57.4004 57.0539 56.6521C57.5397 55.9039 58.1383 54.942 58.3851 54.5144C58.63 54.0869 59.213 52.95 59.6794 51.988C60.1458 51.026 60.6803 49.8464 60.8668 49.3644C61.0534 48.8824 61.2769 48.315 61.3643 48.1012C61.4498 47.8874 61.65 47.2752 61.8074 46.7408C61.9629 46.2064 62.1864 45.3765 62.303 44.8946C62.4196 44.4126 62.6586 43.3204 62.8355 42.4653C63.0784 41.2876 63.1562 39.8495 63.1562 36.538C63.1542 32.76 63.0959 31.901 62.7286 30.2219C62.4935 29.153 62.2292 27.9714 62.1378 27.5983C62.0484 27.2232 61.7472 26.306 61.4693 25.5577C61.1914 24.8095 60.8863 24.0225 60.791 23.8087C60.6958 23.5949 60.243 22.6757 59.7844 21.7681C59.3257 20.8586 58.8554 19.9413 58.7407 19.7275C58.6241 19.5138 58.356 19.0765 58.1461 18.7558C57.9342 18.4352 57.2404 17.4732 56.6049 16.6181C55.9695 15.763 54.9647 14.5484 54.37 13.9168C53.7754 13.2871 52.9902 12.5 52.6249 12.1677C52.2595 11.8373 51.7795 11.3593 51.556 11.1066C51.3344 10.854 50.5182 10.133 49.7428 9.50332C48.9674 8.87366 48.1376 8.24982 47.8966 8.11573C47.6556 7.98163 47.4166 7.82033 47.3621 7.75814C47.3077 7.69595 46.8705 7.36558 46.3904 7.02354C45.9104 6.68344 45.2963 6.40942 45.0301 6.41525C44.7619 6.42303 43.8446 6.90887 42.9895 7.49384Z" fill="white"/>
<path d="M34.7144 1.23603C33.9215 1.91427 32.5262 3.24744 31.6128 4.19971C30.6994 5.15003 29.3954 6.62896 28.7132 7.48406C28.0311 8.33915 26.9311 9.86861 26.2684 10.885C25.6077 11.9014 24.9003 13.05 24.6982 13.4406C24.498 13.8312 24.1909 14.4434 24.018 14.801C23.847 15.1585 23.4369 16.0642 23.1085 16.8124C22.7781 17.5606 22.1989 19.1134 21.818 20.2619C21.4371 21.4105 21.1262 22.5687 21.1262 22.8369C21.1262 23.1032 21.0018 23.6512 20.8502 24.0515C20.6986 24.4519 20.4713 25.7851 20.3449 27.0152C20.2186 28.2435 20.0146 29.3629 19.8921 29.5008C19.7367 29.6777 19.0778 29.7515 17.7252 29.7477C16.6564 29.7438 15.6827 29.806 15.5603 29.8856C15.4379 29.9634 15.2455 30.9467 15.1327 32.0681C15.0181 33.1894 14.9015 34.8957 14.8704 35.8577C14.8412 36.8197 14.8801 37.7156 14.9578 37.8497C15.0492 38.0032 15.5525 38.0946 16.3163 38.0965C16.9848 38.0984 17.8613 38.2073 18.2636 38.3394L18.9982 38.5785C18.9904 40.31 18.9107 41.1846 18.8135 41.6393C18.7183 42.0941 18.4929 43.1649 18.3121 44.02C18.1314 44.8751 17.7175 46.4045 17.391 47.4209C17.0664 48.4373 16.5767 49.7491 16.3066 50.336C16.0345 50.9229 15.4592 52.0171 15.0297 52.7653C14.6003 53.5135 13.6752 54.868 12.9756 55.7737C12.274 56.6812 11.0458 58.0513 10.2431 58.817C9.44247 59.5847 8.34833 60.5447 7.8139 60.9489C7.27946 61.3532 5.92491 62.2627 4.80163 62.9701C3.68029 63.6775 2.28104 64.482 1.69219 64.7599C1.10528 65.0378 0.469789 65.3177 0.283222 65.3799C0.0966558 65.444 -0.0277218 65.6034 0.00531604 65.7375C0.0402972 65.8716 0.434807 66.1767 0.879846 66.4177L1.69219 66.8549C3.72498 65.7103 4.44793 65.3274 4.60729 65.2691C4.76859 65.2089 5.55567 64.7425 6.35635 64.2294C7.15897 63.7183 8.33862 62.9001 8.97994 62.4084C9.62126 61.9187 10.9214 60.7721 11.8698 59.8626C12.8182 58.9511 13.9997 57.6821 14.4934 57.0408C14.9889 56.3994 15.6555 55.4783 15.9762 54.9924C16.2968 54.5066 16.6641 53.9391 16.7924 53.7292C16.9226 53.5193 17.2996 52.7808 17.6339 52.0851C17.9662 51.3894 18.3491 50.6023 18.4832 50.336C18.6173 50.0678 18.8466 49.4557 18.9923 48.9757C19.1381 48.4937 19.3713 47.9262 19.5132 47.7124C19.6531 47.4987 19.7678 47.1702 19.7678 46.9837C19.7658 46.7971 19.8435 46.49 19.9388 46.3035C20.0359 46.1169 20.2147 45.4814 20.3372 44.8945C20.4596 44.3057 20.6501 43.3884 20.7569 42.8539C20.8658 42.3195 21.0582 41.1632 21.1864 40.2828C21.3613 39.0701 21.511 38.6173 21.8064 38.4172C22.0202 38.2695 22.7198 38.0907 23.3611 38.0188C24.0024 37.9449 24.8342 37.7894 25.2073 37.6709C25.5824 37.5543 26.3617 37.2278 26.9408 36.9479C27.52 36.67 28.2876 36.0909 28.6452 35.6634C29.0047 35.2358 29.3487 34.6236 29.409 34.303C29.4712 33.9823 29.4692 33.4576 29.4031 33.1369C29.339 32.8163 29.0009 32.2138 28.6549 31.7979C28.309 31.3801 27.6754 30.8593 27.2479 30.6397C26.8204 30.4181 26.1654 30.1286 25.7904 29.9945C25.4172 29.8623 24.5543 29.6835 23.8742 29.598C23.1959 29.5144 22.5604 29.3357 22.4652 29.2016C22.37 29.0675 22.3466 28.8051 22.4147 28.6185C22.4807 28.432 22.6615 27.6216 22.8131 26.8209C22.9666 26.0183 23.1396 25.0135 23.1998 24.586C23.2581 24.1584 23.3747 23.7212 23.4563 23.6143C23.538 23.5074 23.6584 23.0254 23.7245 22.5454C23.7925 22.0634 24.0646 21.1248 24.3328 20.4563C24.599 19.7877 24.8206 19.0881 24.8206 18.9015C24.8225 18.715 24.9897 18.2116 25.1937 17.7841C25.3958 17.3565 25.7476 16.5695 25.975 16.035C26.2024 15.5006 26.4841 14.8884 26.6046 14.6746C26.7251 14.4609 27.0827 13.804 27.3995 13.2171C27.7182 12.6282 28.2935 11.674 28.6821 11.0949C29.0689 10.5158 29.5605 9.80642 29.7743 9.51685C29.9881 9.22728 30.5206 8.52183 30.9579 7.94659C31.3951 7.37134 32.5767 6.12367 33.5814 5.17335C34.5881 4.22303 36.1778 2.86653 37.1184 2.16108C38.0571 1.45368 38.7567 0.822081 38.6732 0.756005C38.5876 0.689929 38.0824 0.493644 37.5479 0.316795C37.0135 0.141889 36.481 -0.00192393 36.3663 1.9468e-05C36.2497 1.9468e-05 35.5054 0.557778 34.7144 1.23603Z" fill="white"/>
<path d="M133.6 10.4982C135.518 10.5001 136.82 10.5958 137.536 10.7902C138.122 10.9475 138.911 11.3239 139.285 11.6251C139.658 11.9263 140.132 12.5178 140.338 12.9376C140.552 13.3769 140.713 14.1173 140.713 14.6749C140.717 15.3743 140.572 15.905 140.195 16.5695C139.843 17.1952 139.392 17.6502 138.799 17.9786C138.317 18.2468 137.924 18.5308 137.924 18.6105C137.927 18.6929 138.538 19.5664 139.285 20.5538C140.033 21.543 140.645 22.3959 140.645 22.4484C140.645 22.5008 140.382 22.545 140.062 22.545C139.65 22.545 139.366 22.3898 139.092 22.0109C138.881 21.7175 138.638 21.3893 138.554 21.2823C138.471 21.1755 138.01 20.5902 136.662 18.88L134.524 18.7423C133.348 18.6665 132.278 18.6607 132.143 18.7286C131.974 18.8141 131.9 19.4184 131.9 22.545H130.734V10.4962L133.6 10.4982ZM134.508 11.4718C133.218 11.4699 132.09 11.526 131.998 11.5978C131.908 11.6677 131.849 13.0671 131.867 14.7072L131.9 17.6866C136.523 17.6789 137.21 17.6071 137.828 17.3312C138.315 17.1136 138.779 16.6977 139.073 16.2179C139.459 15.5863 139.528 15.2612 139.461 14.3517C139.401 13.5201 139.263 13.124 138.896 12.7238C138.628 12.4323 138.061 12.0333 137.633 11.8351C137.015 11.5494 136.374 11.4757 134.508 11.4718Z" fill="white"/>
<path d="M149.682 10.514C150.663 10.5063 151.619 10.6265 152.274 10.8383C152.845 11.0248 153.765 11.5319 154.315 11.9672C154.995 12.5035 155.503 13.1293 155.895 13.9105C156.255 14.6276 156.504 15.4656 156.554 16.1322C156.607 16.8394 156.509 17.5933 156.268 18.3607C156.004 19.1944 155.627 19.8167 154.929 20.5648C154.364 21.1712 153.51 21.8202 152.888 22.1176C151.962 22.5586 151.561 22.6264 149.873 22.6342C148.361 22.64 147.731 22.5585 147.054 22.265C146.576 22.0571 145.759 21.5774 145.24 21.1967C144.525 20.6719 144.136 20.1759 143.632 19.1439C143.106 18.0674 142.967 17.5506 142.971 16.6664C142.975 15.9901 143.146 15.1073 143.407 14.431C143.689 13.7005 144.177 12.9716 144.816 12.3265C145.527 11.6096 146.116 11.2264 146.962 10.933C147.747 10.6591 148.637 10.5238 149.682 10.514ZM149.682 11.4818C148.897 11.4857 147.994 11.6214 147.545 11.8021C147.117 11.9731 146.511 12.2974 146.198 12.5189C145.885 12.7424 145.339 13.3625 144.983 13.8969C144.381 14.8005 144.336 14.9797 144.338 16.472C144.338 17.8518 144.411 18.2137 144.872 19.0629C145.165 19.6051 145.669 20.2506 145.99 20.4955C146.311 20.7403 146.923 21.0863 147.35 21.2631C147.873 21.4787 148.67 21.5794 149.779 21.5736C150.939 21.5678 151.663 21.461 152.209 21.2142C152.636 21.0218 153.32 20.563 153.73 20.1976C154.138 19.8323 154.641 19.1828 154.843 18.7552C155.098 18.2247 155.216 17.5463 155.22 16.6176C155.224 15.5606 155.12 15.0414 154.749 14.2855C154.486 13.7511 153.916 13.0308 153.483 12.683C153.05 12.3352 152.324 11.9205 151.869 11.7611C151.414 11.6037 150.43 11.4779 149.682 11.4818Z" fill="white"/>
<path d="M228.438 10.4982C230.356 10.5001 231.658 10.5958 232.374 10.7902C232.962 10.9475 233.749 11.3259 234.123 11.631C234.496 11.9341 234.953 12.4805 235.133 12.8458C235.32 13.2209 235.467 13.9729 235.471 14.5773C235.475 15.3098 235.342 15.9143 235.044 16.4991C234.765 17.0491 234.279 17.5685 233.68 17.9572C233.172 18.2879 232.758 18.5799 232.756 18.6095C232.76 18.6367 232.955 18.9423 233.19 19.2902C233.425 19.6375 233.669 19.9655 233.734 20.0187C233.798 20.0711 234.062 20.4211 234.321 20.796C234.579 21.1711 234.949 21.6516 235.141 21.8654C235.334 22.0791 235.489 22.3199 235.487 22.3995C235.485 22.4792 235.221 22.545 234.9 22.545C234.412 22.545 234.167 22.3471 233.4 21.3312C232.897 20.6626 232.36 19.9837 232.209 19.8243C232.059 19.665 231.858 19.379 231.765 19.1925C231.617 18.8956 231.285 18.8527 226.738 18.8527V22.545H225.572V10.4962L228.438 10.4982ZM229.309 11.4757C227.521 11.4699 226.904 11.5304 226.841 11.7208C226.797 11.8595 226.777 13.2368 226.798 14.7814L226.836 17.59C231.523 17.6813 232.001 17.6343 232.666 17.3136C233.093 17.1076 233.614 16.6919 233.824 16.3907C234.102 15.9924 234.209 15.5083 234.212 14.6417C234.218 13.7305 234.125 13.3085 233.82 12.8927C233.6 12.5895 233.03 12.1503 232.556 11.9132C231.81 11.5421 231.369 11.4835 229.309 11.4757Z" fill="white"/>
<path d="M150.176 54.0593C150.347 53.9118 150.876 53.8401 152.598 53.9314L153.806 56.3611C154.47 57.6982 155.718 60.2558 156.575 62.0457C157.433 63.8341 158.135 65.4283 158.136 65.5916C158.136 65.8131 157.891 65.8855 156.096 65.8972L154.832 63.1628L148.127 63.155L146.766 65.8914L145.747 65.8875C145.186 65.8855 144.727 65.796 144.726 65.6892C144.726 65.5823 145.043 64.8167 145.432 63.989C145.818 63.1611 147.002 60.6909 148.059 58.4988C149.115 56.3111 149.962 54.4703 149.938 54.408C149.915 54.3497 150.022 54.1915 150.176 54.0593ZM151.47 56.1667C151.436 56.1673 151.289 56.2713 151.14 56.3992C150.99 56.5273 150.885 56.7022 150.906 56.7878C150.928 56.8733 150.649 57.5769 150.288 58.3523C149.927 59.1276 149.489 60.0895 149.316 60.49C149.143 60.8901 149.068 61.2653 149.147 61.322C149.227 61.3784 150.322 61.4216 151.577 61.4197C152.965 61.4158 153.858 61.3378 153.86 61.2195C153.86 61.1126 153.336 59.9306 152.694 58.5955C152.053 57.2584 151.503 56.1667 151.47 56.1667Z" fill="white"/>
<path d="M112.611 53.8361C114.903 53.838 116.183 53.926 116.936 54.132C117.538 54.2971 118.366 54.7208 118.83 55.1017C119.39 55.5602 119.761 56.0748 119.98 56.7003C120.21 57.3572 120.266 57.904 120.173 58.5958C120.103 59.1302 119.826 59.8957 119.56 60.296C119.291 60.6964 118.723 61.2211 118.298 61.462C117.871 61.7025 117.52 61.9431 117.517 61.9962C117.513 62.0487 118.049 62.8378 118.706 63.7452C119.363 64.6528 120.001 65.5106 120.119 65.6486C120.294 65.8523 120.098 65.8985 117.907 65.8829L115.284 62.3634L111.785 62.4825L111.688 65.8829H109.356V53.8341L112.611 53.8361ZM114.087 55.6105C112.346 55.5561 111.894 55.5969 111.807 55.8165C111.748 55.9686 111.718 57.0936 111.743 58.3156L111.786 60.5392C115.429 60.6402 115.781 60.5918 116.547 60.2052C117.229 59.8593 117.482 59.5906 117.699 58.9845C117.927 58.3548 117.935 58.0495 117.748 57.381C117.593 56.8194 117.316 56.4146 116.887 56.1173C116.345 55.7426 115.95 55.6707 114.087 55.6105Z" fill="white"/>
<path d="M99.323 54.0676C99.4318 53.8986 99.84 53.8337 101.68 53.9309L102.607 55.7776C103.116 56.792 104.406 59.4391 105.473 61.6565C106.54 63.8739 107.413 65.732 107.413 65.7864C107.411 65.8387 106.907 65.8851 105.178 65.8967L103.915 63.1624L97.2107 63.1545L95.8503 65.8909L94.8298 65.887C94.2682 65.885 93.8093 65.7956 93.8093 65.6887C93.8097 65.5811 94.0679 64.9476 94.3825 64.2795C94.6974 63.6109 95.3872 62.1458 95.9177 61.0247C96.4482 59.9015 97.3964 57.9352 98.0222 56.6526C98.6498 55.3701 99.2354 54.2078 99.323 54.0676ZM100.782 56.3899C100.557 56.2326 100.405 56.2365 100.213 56.4036C100.069 56.5299 99.9676 56.7029 99.989 56.7883C100.01 56.8746 99.6338 57.7744 99.154 58.7903C98.6722 59.8045 98.2791 60.8107 98.279 61.0247C98.279 61.392 98.4093 61.4133 100.611 61.4133C101.893 61.4133 102.944 61.3474 102.949 61.2678C102.953 61.1881 102.516 60.181 101.977 59.0325C101.439 57.8845 101.02 56.8686 101.045 56.7727C101.07 56.6794 100.951 56.5065 100.782 56.3899Z" fill="white"/>
<path d="M305.76 26.0864C306.038 25.6569 306.125 25.6456 311.374 25.7524L311.719 26.4321C311.908 26.8054 312.749 28.5544 313.588 30.3188C314.428 32.0814 315.421 34.1802 315.798 34.9829C316.175 35.7836 317.026 37.5778 317.691 38.9673C318.356 40.3566 319.292 42.3228 319.772 43.3394C320.254 44.3538 320.947 45.7982 321.312 46.5464C321.677 47.2937 321.974 47.9713 321.97 48.0522C321.966 48.1319 320.719 48.1997 316.426 48.2075L315.832 46.8901C315.503 46.1672 315.023 45.0728 314.289 43.3452H308.75C305.704 43.3452 303.117 43.4101 303.004 43.4897C302.891 43.5698 302.357 44.6401 300.847 48.1011L298.094 48.1499C296.581 48.1771 295.361 48.1535 295.38 48.0991C295.404 48.0447 295.896 46.9737 296.473 45.7183C297.05 44.4629 297.83 42.7796 298.207 41.979C298.584 41.1762 299.55 39.1766 300.354 37.5327C301.155 35.8921 301.795 34.5186 301.779 34.478C301.758 34.4411 302.099 33.6884 302.539 32.8022C302.978 31.918 303.817 30.1442 304.404 28.8618C304.993 27.5796 305.603 26.3299 305.76 26.0864ZM308.595 31.0962C308.457 31.0969 308.207 31.425 308.038 31.8247C307.869 32.225 307.513 33.0357 307.249 33.6226C306.982 34.2095 306.338 35.6755 305.815 36.8784C305.291 38.0798 304.864 39.1492 304.863 39.2583C304.863 39.3807 306.256 39.4526 308.652 39.4526C312.171 39.4526 312.434 39.4296 312.338 39.1128C312.28 38.925 311.472 37.0445 310.542 34.9351C309.603 32.8109 308.733 31.0981 308.595 31.0962Z" fill="white"/>
<path d="M229.747 25.7017C235.167 25.7619 236.345 25.8262 237.33 26.1157C237.971 26.3042 238.846 26.6206 239.273 26.8169C239.701 27.0132 240.506 27.5104 241.059 27.9204C241.615 28.3304 242.332 29.1038 242.655 29.6382C242.98 30.1726 243.387 31.1778 243.566 31.8735C243.794 32.7636 243.854 33.5395 243.774 34.4976C243.712 35.2456 243.545 36.1625 243.403 36.5376C243.261 36.9107 243.007 37.4806 242.834 37.8013C242.663 38.122 242.054 38.8177 241.481 39.3481C240.908 39.8787 239.871 40.5665 239.176 40.8755C238.482 41.1844 237.213 41.5598 236.358 41.7075C235.46 41.8649 233.47 41.979 228.487 41.979V48.1978H223.046L223.012 37.0562C222.995 30.7125 223.055 25.8575 223.154 25.7729C223.249 25.6952 226.216 25.6628 229.747 25.7017ZM228.499 33.8052L228.487 37.7036C233.382 37.7017 235.11 37.6181 235.483 37.5171C235.858 37.4141 236.464 37.1301 236.832 36.8853C237.201 36.6404 237.68 36.1353 237.895 35.7603C238.183 35.2648 238.29 34.7359 238.286 33.8169C238.284 32.8746 238.173 32.3578 237.848 31.7769C237.534 31.2133 237.133 30.8649 236.4 30.5132C235.456 30.0605 235.146 30.0236 231.948 29.9673L228.512 29.9048L228.499 33.8052Z" fill="white"/>
<path d="M180.31 53.8341C182.008 53.8341 183.815 53.9216 184.323 54.0265C184.83 54.1314 185.617 54.4597 186.07 54.755C186.523 55.0504 187.081 55.5987 187.306 55.9718C187.534 56.345 187.765 57.0897 187.821 57.6241C187.877 58.1644 187.815 58.9399 187.679 59.3732C187.545 59.8006 187.161 60.4434 186.827 60.8029C186.492 61.1624 185.825 61.633 185.343 61.8488C184.685 62.1422 183.858 62.2701 182.001 62.3615C179.75 62.4703 179.523 62.5175 179.427 62.8712C179.371 63.0855 179.323 63.8515 179.319 65.8829L177.278 65.8907L177.134 65.1583C177.055 64.7559 176.991 62.2394 176.991 59.5675C176.993 56.8964 177.043 54.5142 177.105 54.2716C177.216 53.8421 177.267 53.8341 180.31 53.8341ZM179.19 58.0441L179.181 60.6671C182.48 60.6658 183.646 60.61 183.899 60.5421C184.152 60.4728 184.561 60.2821 184.809 60.1173C185.058 59.9526 185.38 59.6119 185.526 59.3595C185.72 59.0262 185.792 58.6702 185.79 58.0519C185.788 57.418 185.714 57.0697 185.495 56.6788C185.282 56.2998 185.012 56.0658 184.518 55.8292C183.881 55.5246 183.672 55.5 181.515 55.462L179.199 55.42L179.19 58.0441Z" fill="white"/>
<path d="M177.275 25.7017C182.679 25.7619 183.876 25.8262 184.858 26.1157C185.499 26.3022 186.33 26.597 186.703 26.77C187.078 26.9449 187.779 27.3497 188.259 27.6704C188.74 27.9909 189.294 28.4332 189.492 28.6548C189.689 28.8743 190.056 29.405 190.309 29.8325C190.561 30.2601 190.913 31.1778 191.092 31.8735C191.327 32.7868 191.381 33.5272 191.294 34.5454C191.214 35.4685 190.983 36.3726 190.621 37.1694C190.287 37.9059 189.734 38.6934 189.213 39.1694C188.741 39.6028 187.982 40.1698 187.525 40.4321C187.069 40.6942 186.697 41.0185 186.7 41.1528C186.702 41.2869 187.798 42.862 189.133 44.6519C190.469 46.4409 191.562 47.9714 191.563 48.0522C191.563 48.1319 190.317 48.1958 188.793 48.1938C186.182 48.1919 186 48.1672 185.617 47.7573C185.392 47.5183 184.98 46.9739 184.698 46.5464C184.418 46.1189 183.551 44.9391 181.359 42.0767L176.015 41.979V48.1978H170.573L170.54 37.0562C170.523 30.7092 170.584 25.8526 170.683 25.7729C170.785 25.6954 173.748 25.6628 177.275 25.7017ZM176.071 33.854L176.112 37.8013C182.277 37.7741 182.608 37.7366 183.585 37.3013C184.3 36.9826 184.82 36.5767 185.193 36.0522C185.679 35.3643 185.742 35.1093 185.738 33.8169C185.734 32.6199 185.653 32.2369 185.281 31.6792C185.029 31.2983 184.409 30.7852 183.872 30.5132C182.974 30.0585 182.694 30.0236 179.473 29.9673L176.032 29.9048L176.071 33.854Z" fill="white"/>
<path d="M256.958 25.5386C257.811 25.3734 259.115 25.3054 260.456 25.3579C261.632 25.4026 263.118 25.5775 263.76 25.7446C264.401 25.9118 265.659 26.4188 266.555 26.8716C267.449 27.3244 268.673 28.139 269.275 28.6812C269.876 29.2234 270.725 30.2277 271.162 30.9155C271.601 31.6035 272.159 32.6902 272.402 33.3315C272.703 34.1244 272.876 35.087 272.942 36.3442C273.01 37.6733 272.95 38.5442 272.723 39.4536C272.55 40.1494 272.124 41.2844 271.776 41.98C271.368 42.7962 270.628 43.7661 269.687 44.7183C268.547 45.8726 267.871 46.364 266.577 46.9917C265.67 47.4328 264.401 47.9339 263.76 48.105C263.118 48.2779 261.719 48.4666 260.65 48.5269C259.319 48.6007 258.217 48.5424 257.152 48.3423C256.297 48.181 254.985 47.8076 254.237 47.5122C253.489 47.2149 252.396 46.6675 251.808 46.2905C251.219 45.9155 250.28 45.1186 249.721 44.522C249.161 43.9254 248.406 42.8701 248.043 42.1743C247.68 41.4787 247.242 40.3437 247.069 39.6479C246.898 38.9523 246.757 37.7299 246.755 36.9272C246.755 36.1266 246.886 34.9445 247.047 34.3032C247.208 33.6619 247.624 32.5692 247.97 31.8735C248.316 31.1797 249.122 30.0546 249.766 29.3765C250.409 28.6964 251.413 27.8493 252.002 27.4917C252.591 27.1341 253.638 26.6075 254.334 26.3218C255.03 26.0361 256.21 25.6824 256.958 25.5386ZM260.262 29.8101C259.193 29.777 258.019 29.8173 257.653 29.8989C257.288 29.9805 256.633 30.2233 256.196 30.437C255.761 30.6488 255.008 31.1794 254.528 31.6128C254.04 32.0539 253.378 32.9503 253.028 33.644C252.439 34.8101 252.4 35.0123 252.396 36.9751C252.393 38.1236 252.466 39.2182 252.558 39.4048C252.649 39.5915 252.879 40.0514 253.069 40.4243C253.26 40.7974 253.819 41.5265 254.31 42.0415C254.804 42.5565 255.559 43.1372 255.986 43.3335C256.414 43.5278 257.113 43.7853 257.541 43.9019C257.969 44.0184 259.018 44.1167 259.873 44.1167C260.751 44.1186 261.894 43.9829 262.496 43.8042C263.085 43.6312 263.915 43.248 264.343 42.9546C264.77 42.663 265.384 42.1265 265.707 41.7632C266.031 41.4017 266.507 40.6676 266.768 40.1333C267.133 39.3851 267.258 38.7612 267.318 37.4126C267.363 36.3632 267.296 35.3133 267.148 34.7886C267.014 34.3086 266.708 33.5647 266.467 33.1372C266.226 32.7098 265.649 32.016 265.186 31.5942C264.722 31.1725 263.862 30.6125 263.273 30.3501C262.418 29.9674 261.818 29.8606 260.262 29.8101Z" fill="white"/>
<path d="M304.669 10.5588C306.231 10.5899 306.686 10.6773 307.632 11.1301C308.246 11.4236 309.151 12.078 309.638 12.5852C310.18 13.1488 310.679 13.9245 310.919 14.5774C311.206 15.3625 311.291 15.9825 311.237 16.9094C311.189 17.7516 311.006 18.4891 310.687 19.1213C310.423 19.644 309.858 20.4095 309.43 20.8235C309.003 21.2374 308.172 21.8152 307.584 22.1067C306.626 22.5827 306.303 22.637 304.474 22.6389C302.651 22.6428 302.319 22.5867 301.365 22.1223C300.776 21.8347 299.967 21.2884 299.567 20.9075C299.167 20.5246 298.62 19.7759 298.352 19.2415C298.086 18.707 297.812 17.9415 297.746 17.5413C297.68 17.1409 297.682 16.3303 297.748 15.7434C297.827 15.0535 298.094 14.2976 298.501 13.6116C298.852 13.0189 299.557 12.2257 300.101 11.8137C300.636 11.4095 301.468 10.9536 301.948 10.8C302.504 10.6213 303.497 10.5336 304.669 10.5588ZM304.378 11.4739C303.107 11.4836 302.646 11.5775 301.851 11.9856C301.317 12.2596 300.673 12.6713 300.422 12.8987C300.174 13.128 299.826 13.5771 299.653 13.8977C299.48 14.2183 299.227 14.7854 299.091 15.1604C298.955 15.5335 298.842 16.2125 298.842 16.6672C298.841 17.1221 299.019 17.9092 299.239 18.4163C299.46 18.9235 299.919 19.6349 300.259 19.9944C300.602 20.3558 301.317 20.8571 301.851 21.1096C302.636 21.4826 303.139 21.5696 304.474 21.5696C305.796 21.5696 306.321 21.4789 307.098 21.1174C307.633 20.8687 308.354 20.3459 308.702 19.9534C309.05 19.5627 309.467 18.9133 309.628 18.5129C309.792 18.1126 309.925 17.2596 309.925 16.6184C309.925 15.9772 309.782 15.1027 309.605 14.675C309.428 14.2475 309.055 13.6059 308.773 13.2483C308.493 12.8927 307.739 12.3443 307.098 12.0295C306.094 11.5379 305.718 11.4622 304.378 11.4739Z" fill="white"/>
<path d="M283.063 10.541C285.487 10.6051 286.523 10.7103 287.178 10.959C287.657 11.1416 288.303 11.5278 288.61 11.8174C288.917 12.105 289.291 12.6267 289.436 12.9746C289.584 13.3227 289.706 14.1098 289.708 14.7236C289.712 15.6659 289.612 15.9885 289.076 16.791C288.705 17.3487 288.137 17.8927 287.712 18.1025C287.311 18.3007 286.983 18.5071 286.983 18.5615C286.983 18.6142 287.18 18.9443 287.421 19.292C287.662 19.6399 288.295 20.4819 288.83 21.1602C289.626 22.1704 289.749 22.4245 289.51 22.5625C289.348 22.6577 289.109 22.7363 288.975 22.7363C288.841 22.7383 288.204 22.0613 287.558 21.2334C286.913 20.4056 286.214 19.531 286.004 19.29C285.648 18.8821 285.467 18.8525 280.959 18.8525L280.862 22.6426H279.695L279.667 16.8145C279.651 13.6099 279.68 10.8676 279.73 10.7217C279.804 10.5079 280.448 10.473 283.063 10.541ZM283.518 11.4678C282.253 11.4678 281.145 11.5267 281.055 11.5986C280.966 11.6722 280.908 13.07 280.926 14.708L280.959 17.6875C285.684 17.6797 286.245 17.6154 286.934 17.2949C287.389 17.0831 287.939 16.6262 288.159 16.2783C288.474 15.7808 288.545 15.3918 288.499 14.4492C288.452 13.4855 288.345 13.1512 287.955 12.7412C287.687 12.4614 287.098 12.0615 286.643 11.8516C285.969 11.5387 285.394 11.4678 283.518 11.4678Z" fill="white"/>
<path d="M270.666 10.4962C271.09 10.4962 271.344 10.6498 271.63 11.0792C271.844 11.3999 272.019 11.7074 272.019 11.7599C272.024 11.8232 273.159 14.1822 274.545 17.007C275.933 19.836 277.069 22.24 277.071 22.3507C277.071 22.4576 276.809 22.545 276.488 22.545C275.979 22.545 275.853 22.4285 275.497 21.6222C275.274 21.115 274.946 20.4131 274.448 19.4318L266.966 19.4357L266.237 20.9982C265.544 22.4848 265.479 22.5587 264.877 22.5529C264.529 22.549 264.278 22.4792 264.319 22.3995C264.361 22.3178 265.375 20.2413 266.575 17.7843C267.774 15.3259 269.057 12.6808 269.425 11.9054C270.031 10.6249 270.143 10.4963 270.666 10.4962ZM270.783 12.0509C270.634 12.0509 269.912 13.3061 269.135 14.9171C268.373 16.4932 267.749 17.9376 267.747 18.1241C267.743 18.433 268.016 18.464 270.756 18.464C272.635 18.464 273.769 18.3901 273.769 18.2697C273.768 18.1626 273.604 17.7038 273.404 17.2491C273.204 16.7941 272.651 15.5933 272.171 14.5773C271.693 13.5609 271.244 12.5773 271.174 12.3907C271.104 12.2043 270.929 12.051 270.783 12.0509Z" fill="white"/>
</svg>
